# 3ds Max Wavefront OBJ Exporter v0.97b - (c)2007 guruware
# File Created: 09.03.2017 18:47:25

mtllib Brick_Hangar_OBJ.mtl

#
# object 02_ML_031_LOD0
#

v  -150.0000 5.0000 990.0000
v  -150.0000 265.0000 990.0000
v  -310.0000 305.0000 990.0000
v  -310.0000 -95.0000 990.0000
v  310.0000 -95.0000 -106.4288
v  310.0000 200.4697 -106.4286
v  310.0000 200.4697 106.4285
v  150.0000 5.0000 -990.0000
v  150.0000 265.0000 -990.0000
v  310.0000 305.0000 -990.0000
v  310.0000 -95.0000 -990.0000
v  310.0000 305.0000 990.0000
v  0.0000 505.8835 990.0000
v  -310.0000 305.0000 -990.0000
v  0.0000 505.8836 -990.0000
v  310.0000 -95.0000 990.0000
v  150.0000 265.0000 990.0000
v  150.0000 5.0000 990.0000
v  -310.0000 -95.0000 -990.0000
v  -150.0000 265.0000 -990.0000
v  -150.0000 5.0000 -990.0000
v  150.0000 265.0000 975.0000
v  -150.0000 265.0000 975.0000
v  -150.0000 5.0000 975.0000
v  150.0000 5.0000 975.0000
v  -150.0000 265.0000 -975.0000
v  150.0000 265.0000 -975.0000
v  150.0000 5.0000 -975.0000
v  -150.0000 5.0000 -975.0000
v  310.0000 240.4698 -742.1429
v  310.0000 200.4698 -742.1429
v  310.0000 200.4698 -672.1429
v  310.0000 200.4697 -459.2858
v  310.0000 200.4697 -389.2858
v  310.0000 200.4697 -176.4286
v  310.0000 200.4697 742.1428
v  310.0000 240.4697 742.1428
v  310.0000 240.4697 672.1428
v  310.0000 240.4697 459.2856
v  310.0000 305.0000 -106.4287
v  310.0000 240.4697 389.2856
v  310.0000 240.4697 176.4285
v  310.0000 240.4697 106.4285
v  310.0000 240.4697 -106.4286
v  310.0000 240.4698 -672.1429
v  310.0000 240.4697 -459.2858
v  310.0000 240.4697 -389.2858
v  310.0000 240.4697 -176.4286
v  310.0000 200.4697 672.1428
v  310.0000 200.4697 459.2856
v  310.0000 200.4697 389.2856
v  310.0000 200.4697 176.4285
v  302.0000 200.4698 -742.1429
v  302.0000 240.4698 -742.1429
v  302.0000 240.4698 -672.1429
v  302.0000 200.4698 -672.1429
v  302.0000 200.4697 -459.2858
v  302.0000 240.4697 -459.2858
v  302.0000 240.4697 -389.2858
v  302.0000 200.4697 -389.2858
v  302.0000 200.4697 -176.4286
v  302.0000 240.4697 -176.4286
v  302.0000 240.4697 -106.4286
v  302.0000 200.4697 -106.4286
v  302.0000 240.4697 742.1428
v  302.0000 200.4697 742.1428
v  302.0000 200.4697 672.1428
v  302.0000 240.4697 672.1428
v  302.0000 240.4697 459.2856
v  302.0000 200.4697 459.2856
v  302.0000 200.4697 389.2856
v  302.0000 240.4697 389.2856
v  302.0000 240.4697 176.4285
v  302.0000 200.4697 176.4285
v  302.0000 200.4697 106.4285
v  302.0000 240.4697 106.4285
v  -310.0001 -95.0000 -106.4288
v  -310.0001 200.4697 106.4285
v  -310.0001 200.4697 -106.4286
v  -310.0001 200.4698 -742.1429
v  -310.0001 240.4698 -742.1429
v  -310.0001 200.4697 -459.2858
v  -310.0001 200.4698 -672.1429
v  -310.0001 200.4697 -176.4286
v  -310.0001 200.4697 -389.2858
v  -310.0001 240.4697 742.1428
v  -310.0001 200.4697 742.1428
v  -310.0001 240.4697 459.2856
v  -310.0001 240.4697 672.1428
v  -310.0000 305.0000 -106.4287
v  -310.0001 240.4697 176.4285
v  -310.0001 240.4697 389.2856
v  -310.0001 240.4697 106.4285
v  -310.0001 240.4697 -106.4286
v  -310.0001 240.4698 -672.1429
v  -310.0001 240.4697 -459.2858
v  -310.0001 240.4697 -389.2858
v  -310.0001 240.4697 -176.4286
v  -310.0001 200.4697 672.1428
v  -310.0001 200.4697 459.2856
v  -310.0001 200.4697 389.2856
v  -310.0001 200.4697 176.4285
v  -302.0001 200.4698 -742.1429
v  -302.0001 200.4698 -672.1429
v  -302.0001 240.4698 -672.1429
v  -302.0001 240.4698 -742.1429
v  -302.0001 200.4697 -459.2858
v  -302.0001 200.4697 -389.2858
v  -302.0001 240.4697 -389.2858
v  -302.0001 240.4697 -459.2858
v  -302.0001 200.4697 -176.4286
v  -302.0001 200.4697 -106.4286
v  -302.0001 240.4697 -106.4286
v  -302.0001 240.4697 -176.4286
v  -302.0001 240.4697 742.1428
v  -302.0001 240.4697 672.1428
v  -302.0001 200.4697 672.1428
v  -302.0001 200.4697 742.1428
v  -302.0001 240.4697 459.2856
v  -302.0001 240.4697 389.2856
v  -302.0001 200.4697 389.2856
v  -302.0001 200.4697 459.2856
v  -302.0001 240.4697 176.4285
v  -302.0001 240.4697 106.4285
v  -302.0001 200.4697 106.4285
v  -302.0001 200.4697 176.4285
v  0.0000 513.0332 -106.4286
v  -342.6350 291.0017 -106.4286
v  -342.6350 291.0017 1025.0000
v  0.0000 513.0331 1025.0000
v  342.6350 291.0017 -106.4286
v  342.6350 291.0017 1025.0000
v  -342.6350 291.0017 -1025.0000
v  0.0000 513.0332 -1025.0000
v  0.0000 505.8836 -1025.0000
v  -339.3722 285.9665 -1025.0000
v  -339.3722 285.9665 -106.4286
v  -339.3722 285.9665 1025.0000
v  0.0000 505.8835 1025.0000
v  339.3721 285.9665 -106.4286
v  339.3721 285.9665 -1025.0000
v  342.6350 291.0017 -1025.0000
v  339.3721 285.9665 1025.0000
# 143 vertices

vn 0.0000 -0.0000 1.0000
vn 1.0000 0.0000 -0.0000
vn 0.0000 0.0000 -1.0000
vn 0.0000 1.0000 0.0000
vn -1.0000 0.0000 -0.0000
vn 0.0000 -1.0000 -0.0000
vn -1.0000 -0.0000 -0.0000
vn -1.0000 0.0000 0.0000
vn -1.0000 -0.0000 0.0000
vn -0.5438 0.8392 0.0000
vn 0.5438 0.8392 0.0000
vn -0.8392 -0.5438 -0.0000
vn 0.8392 -0.5438 -0.0000
vn 0.5438 -0.8392 -0.0000
vn -0.5438 -0.8392 0.0000
vn -0.5438 -0.8392 -0.0000
vn 0.5438 -0.8392 0.0000
# 17 vertex normals

vt 0.7978 0.7816 0.0000
vt 0.7978 0.8915 0.0000
vt 0.7302 0.9084 0.0000
vt 0.7302 0.7394 0.0000
vt 0.4746 0.1835 0.0000
vt 0.4746 0.3083 0.0000
vt 0.3846 0.3083 0.0000
vt 0.7985 0.5220 0.0000
vt 0.7985 0.6319 0.0000
vt 0.7309 0.6488 0.0000
vt 0.7309 0.4798 0.0000
vt 0.9922 0.9084 0.0000
vt 0.8612 0.9933 0.0000
vt 0.9929 0.6488 0.0000
vt 0.8619 0.7337 0.0000
vt 0.9922 0.7394 0.0000
vt 0.9246 0.8915 0.0000
vt 0.9246 0.7816 0.0000
vt 0.9929 0.4798 0.0000
vt 0.9253 0.6319 0.0000
vt 0.9253 0.5220 0.0000
vt 0.9897 0.1178 0.0000
vt 0.8629 0.1178 0.0000
vt 0.8629 0.0079 0.0000
vt 0.9897 0.0079 0.0000
vt 0.6209 0.5880 0.0000
vt 0.6209 0.4781 0.0000
vt 0.6273 0.4781 0.0000
vt 0.6273 0.5880 0.0000
vt 0.6698 0.5878 0.0000
vt 0.6698 0.4610 0.0000
vt 0.6761 0.4610 0.0000
vt 0.6761 0.5878 0.0000
vt 0.6528 0.4772 0.0000
vt 0.6528 0.5871 0.0000
vt 0.6464 0.5871 0.0000
vt 0.6464 0.4772 0.0000
vt 0.6900 0.4611 0.0000
vt 0.6900 0.5879 0.0000
vt 0.6837 0.5879 0.0000
vt 0.6837 0.4611 0.0000
vt 0.6349 0.5880 0.0000
vt 0.6349 0.4781 0.0000
vt 0.6413 0.4781 0.0000
vt 0.6413 0.5880 0.0000
vt 0.6977 0.5879 0.0000
vt 0.6977 0.4611 0.0000
vt 0.7040 0.4611 0.0000
vt 0.7040 0.5879 0.0000
vt 0.6651 0.4780 0.0000
vt 0.6651 0.5878 0.0000
vt 0.6587 0.5878 0.0000
vt 0.6587 0.4780 0.0000
vt 0.7180 0.4611 0.0000
vt 0.7180 0.5879 0.0000
vt 0.7117 0.5879 0.0000
vt 0.7117 0.4611 0.0000
vt 0.8536 0.3520 0.0000
vt 0.7489 0.3248 0.0000
vt 0.7489 0.3079 0.0000
vt 0.8536 0.1830 0.0000
vt 0.7193 0.3079 0.0000
vt 0.6293 0.3079 0.0000
vt 0.4802 0.1830 0.0000
vt 0.5998 0.3079 0.0000
vt 0.5098 0.3079 0.0000
vt 0.0112 0.1835 0.0000
vt 0.1160 0.3083 0.0000
vt 0.1160 0.3252 0.0000
vt 0.0112 0.3525 0.0000
vt 0.1455 0.3252 0.0000
vt 0.2355 0.3252 0.0000
vt 0.4746 0.3525 0.0000
vt 0.2651 0.3252 0.0000
vt 0.3550 0.3252 0.0000
vt 0.4802 0.3079 0.0000
vt 0.3846 0.3252 0.0000
vt 0.4746 0.3252 0.0000
vt 0.7193 0.3248 0.0000
vt 0.6293 0.3248 0.0000
vt 0.5998 0.3248 0.0000
vt 0.4802 0.3520 0.0000
vt 0.5098 0.3248 0.0000
vt 0.1455 0.3083 0.0000
vt 0.2355 0.3083 0.0000
vt 0.2651 0.3083 0.0000
vt 0.3550 0.3083 0.0000
vt 0.4802 0.3248 0.0000
vt 0.4478 0.5664 0.0000
vt 0.4478 0.5833 0.0000
vt 0.4182 0.5833 0.0000
vt 0.4182 0.5664 0.0000
vt 0.4025 0.5664 0.0000
vt 0.4025 0.5833 0.0000
vt 0.3729 0.5833 0.0000
vt 0.3729 0.5664 0.0000
vt 0.0112 0.0070 0.0000
vt 0.1011 0.1319 0.0000
vt 0.0112 0.1319 0.0000
vt 0.5858 0.1315 0.0000
vt 0.5858 0.1484 0.0000
vt 0.4811 0.1756 0.0000
vt 0.4811 0.0066 0.0000
vt 0.7054 0.1315 0.0000
vt 0.6154 0.1315 0.0000
vt 0.8545 0.0066 0.0000
vt 0.8249 0.1315 0.0000
vt 0.7350 0.1315 0.0000
vt 0.3698 0.1488 0.0000
vt 0.3698 0.1319 0.0000
vt 0.4745 0.0070 0.0000
vt 0.4745 0.1761 0.0000
vt 0.2503 0.1488 0.0000
vt 0.3402 0.1488 0.0000
vt 0.0112 0.1761 0.0000
vt 0.1307 0.1488 0.0000
vt 0.2207 0.1488 0.0000
vt 0.8545 0.1315 0.0000
vt 0.1011 0.1488 0.0000
vt 0.0112 0.1488 0.0000
vt 0.6154 0.1484 0.0000
vt 0.7054 0.1484 0.0000
vt 0.7350 0.1484 0.0000
vt 0.8249 0.1484 0.0000
vt 0.8545 0.1756 0.0000
vt 0.3402 0.1319 0.0000
vt 0.2503 0.1319 0.0000
vt 0.2207 0.1319 0.0000
vt 0.1307 0.1319 0.0000
vt 0.8545 0.1484 0.0000
vt 0.9308 0.3682 0.0000
vt 0.9308 0.3851 0.0000
vt 0.9275 0.3851 0.0000
vt 0.9275 0.3682 0.0000
vt 0.9308 0.4147 0.0000
vt 0.9275 0.4147 0.0000
vt 0.9308 0.4316 0.0000
vt 0.9275 0.4316 0.0000
vt 0.9308 0.4612 0.0000
vt 0.9275 0.4612 0.0000
vt 0.9395 0.4327 0.0000
vt 0.9395 0.4622 0.0000
vt 0.9361 0.4622 0.0000
vt 0.9361 0.4327 0.0000
vt 0.9394 0.3693 0.0000
vt 0.9395 0.3862 0.0000
vt 0.9361 0.3862 0.0000
vt 0.9361 0.3693 0.0000
vt 0.9395 0.4158 0.0000
vt 0.9361 0.4158 0.0000
vt 0.9592 0.4305 0.0000
vt 0.9592 0.4601 0.0000
vt 0.9558 0.4601 0.0000
vt 0.9558 0.4305 0.0000
vt 0.9592 0.3671 0.0000
vt 0.9592 0.3840 0.0000
vt 0.9558 0.3840 0.0000
vt 0.9558 0.3671 0.0000
vt 0.9592 0.4136 0.0000
vt 0.9558 0.4136 0.0000
vt 0.9712 0.4136 0.0000
vt 0.9712 0.4305 0.0000
vt 0.9678 0.4305 0.0000
vt 0.9678 0.4136 0.0000
vt 0.9712 0.4601 0.0000
vt 0.9678 0.4601 0.0000
vt 0.9712 0.3671 0.0000
vt 0.9712 0.3840 0.0000
vt 0.9678 0.3840 0.0000
vt 0.9678 0.3671 0.0000
vt 0.9832 0.3840 0.0000
vt 0.9832 0.4136 0.0000
vt 0.9798 0.4136 0.0000
vt 0.9798 0.3840 0.0000
vt 0.9832 0.4305 0.0000
vt 0.9798 0.4305 0.0000
vt 0.9832 0.4601 0.0000
vt 0.9798 0.4601 0.0000
vt 0.9832 0.3671 0.0000
vt 0.9798 0.3671 0.0000
vt 0.9488 0.3846 0.0000
vt 0.9488 0.4142 0.0000
vt 0.9454 0.4142 0.0000
vt 0.9454 0.3846 0.0000
vt 0.9488 0.4311 0.0000
vt 0.9454 0.4311 0.0000
vt 0.9488 0.4606 0.0000
vt 0.9454 0.4606 0.0000
vt 0.9488 0.3677 0.0000
vt 0.9454 0.3677 0.0000
vt 0.9101 0.4135 0.0000
vt 0.9101 0.4304 0.0000
vt 0.9067 0.4304 0.0000
vt 0.9067 0.4135 0.0000
vt 0.9101 0.4600 0.0000
vt 0.9067 0.4600 0.0000
vt 0.9101 0.3671 0.0000
vt 0.9101 0.3840 0.0000
vt 0.9067 0.3840 0.0000
vt 0.9067 0.3671 0.0000
vt 0.9171 0.3964 0.0000
vt 0.9171 0.3668 0.0000
vt 0.9205 0.3668 0.0000
vt 0.9205 0.3964 0.0000
vt 0.9171 0.4598 0.0000
vt 0.9171 0.4429 0.0000
vt 0.9205 0.4429 0.0000
vt 0.9205 0.4598 0.0000
vt 0.9171 0.4133 0.0000
vt 0.9205 0.4133 0.0000
vt 0.8965 0.4295 0.0000
vt 0.8965 0.4591 0.0000
vt 0.8931 0.4591 0.0000
vt 0.8931 0.4295 0.0000
vt 0.8965 0.3661 0.0000
vt 0.8965 0.3830 0.0000
vt 0.8931 0.3830 0.0000
vt 0.8931 0.3661 0.0000
vt 0.8965 0.4126 0.0000
vt 0.8931 0.4126 0.0000
vt 0.8589 0.3659 0.0000
vt 0.8589 0.3828 0.0000
vt 0.8555 0.3828 0.0000
vt 0.8555 0.3659 0.0000
vt 0.8589 0.4124 0.0000
vt 0.8555 0.4124 0.0000
vt 0.8589 0.4293 0.0000
vt 0.8555 0.4293 0.0000
vt 0.8589 0.4589 0.0000
vt 0.8555 0.4589 0.0000
vt 0.8681 0.4420 0.0000
vt 0.8681 0.4124 0.0000
vt 0.8715 0.4124 0.0000
vt 0.8715 0.4420 0.0000
vt 0.8681 0.3955 0.0000
vt 0.8715 0.3955 0.0000
vt 0.8681 0.3659 0.0000
vt 0.8715 0.3659 0.0000
vt 0.8681 0.4589 0.0000
vt 0.8715 0.4589 0.0000
vt 0.8801 0.4420 0.0000
vt 0.8801 0.4124 0.0000
vt 0.8835 0.4124 0.0000
vt 0.8835 0.4420 0.0000
vt 0.8801 0.3955 0.0000
vt 0.8835 0.3955 0.0000
vt 0.8801 0.3659 0.0000
vt 0.8835 0.3659 0.0000
vt 0.8801 0.4589 0.0000
vt 0.8835 0.4589 0.0000
vt 0.1825 0.9900 0.0000
vt 0.0100 0.9900 0.0000
vt 0.0100 0.5119 0.0000
vt 0.1825 0.5119 0.0000
vt 0.3551 0.9900 0.0000
vt 0.3551 0.5119 0.0000
vt 0.3678 0.3800 0.0000
vt 0.1953 0.3800 0.0000
vt 0.1969 0.3775 0.0000
vt 0.3678 0.3775 0.0000
vt 0.0100 0.5048 0.0000
vt 0.0100 0.5023 0.0000
vt 0.4881 0.5023 0.0000
vt 0.4881 0.5048 0.0000
vt 0.1953 0.3887 0.0000
vt 0.3678 0.3887 0.0000
vt 0.3678 0.3912 0.0000
vt 0.1969 0.3912 0.0000
vt 0.0117 0.4286 0.0000
vt 0.0117 0.4261 0.0000
vt 0.3999 0.4261 0.0000
vt 0.3999 0.4286 0.0000
vt 0.0136 0.3874 0.0000
vt 0.1861 0.3874 0.0000
vt 0.1861 0.3899 0.0000
vt 0.0152 0.3899 0.0000
vt 0.0130 0.3660 0.0000
vt 0.1856 0.3660 0.0000
vt 0.1839 0.3686 0.0000
vt 0.0130 0.3686 0.0000
vt 0.5365 0.6018 0.0000
vt 0.7091 0.6018 0.0000
vt 0.7091 0.9900 0.0000
vt 0.5365 0.9900 0.0000
vt 0.3640 0.6018 0.0000
vt 0.3640 0.9900 0.0000
vt 0.0161 0.4544 0.0000
vt 0.0161 0.4519 0.0000
vt 0.4043 0.4519 0.0000
vt 0.4043 0.4544 0.0000
vt 0.4881 0.4615 0.0000
vt 0.4881 0.4640 0.0000
vt 0.0100 0.4640 0.0000
vt 0.0100 0.4615 0.0000
vt 0.1969 0.3627 0.0000
vt 0.3530 0.3627 0.0000
vt 0.1713 0.4047 0.0000
vt 0.0152 0.4047 0.0000
vt 0.0117 0.4113 0.0000
vt 0.3851 0.4113 0.0000
vt 0.4734 0.4788 0.0000
vt 0.0100 0.4788 0.0000
vt 0.1839 0.3834 0.0000
vt 0.0278 0.3834 0.0000
vt 0.3530 0.4060 0.0000
vt 0.1969 0.4060 0.0000
vt 0.0100 0.4875 0.0000
vt 0.4734 0.4875 0.0000
vt 0.0309 0.4371 0.0000
vt 0.4043 0.4371 0.0000
# 310 texture coords

g 02_ML_031_LOD0
usemtl 02_ML_031_LOD0
s off
f 1/1/1 2/2/1 3/3/1 4/4/1 
f 5/5/2 6/6/2 7/7/2 
f 8/8/3 9/9/3 10/10/3 11/11/3 
f 12/12/1 13/13/1 3/3/1 
f 14/14/3 15/15/3 10/10/3 
f 16/16/1 12/12/1 17/17/1 18/18/1 
f 16/16/1 18/18/1 1/1/1 4/4/1 
f 19/19/3 14/14/3 20/20/3 21/21/3 
f 19/19/3 21/21/3 8/8/3 11/11/3 
f 22/22/1 23/23/1 24/24/1 25/25/1 
f 26/22/3 27/23/3 28/24/3 29/25/3 
f 12/12/1 3/3/1 2/2/1 17/17/1 
f 14/14/3 10/10/3 9/9/3 20/20/3 
f 2/26/2 1/27/2 24/28/2 23/29/2 
f 1/30/4 18/31/4 25/32/4 24/33/4 
f 18/34/5 17/35/5 22/36/5 25/37/5 
f 17/38/6 2/39/6 23/40/6 22/41/6 
f 9/42/5 8/43/5 28/44/5 27/45/5 
f 8/46/4 21/47/4 29/48/4 28/49/4 
f 21/50/2 20/51/2 26/52/2 29/53/2 
f 20/54/6 9/55/6 27/56/6 26/57/6 
f 10/58/2 30/59/2 31/60/2 11/61/2 
f 11/61/2 32/62/2 33/63/2 
f 5/64/2 34/65/2 35/66/2 
f 16/67/2 36/68/2 37/69/2 12/70/2 
f 12/70/2 38/71/2 39/72/2 
f 40/73/2 41/74/2 42/75/2 
f 11/61/2 31/60/2 32/62/2 
f 11/61/2 33/63/2 34/65/2 5/64/2 
f 5/64/2 35/66/2 6/76/2 
f 12/70/2 37/69/2 38/71/2 
f 12/70/2 39/72/2 41/74/2 40/73/2 
f 40/73/2 42/75/2 43/77/2 
f 44/78/2 40/73/2 43/77/2 
f 45/79/2 10/58/2 46/80/2 
f 47/81/2 40/82/2 48/83/2 
f 49/84/2 16/67/2 50/85/2 
f 51/86/2 5/5/2 52/87/2 
f 30/59/2 10/58/2 45/79/2 
f 10/58/2 40/82/2 47/81/2 46/80/2 
f 48/83/2 40/82/2 44/88/2 
f 36/68/2 16/67/2 49/84/2 
f 16/67/2 5/5/2 51/86/2 50/85/2 
f 52/87/2 5/5/2 7/7/2 
f 6/6/2 44/78/2 43/77/2 7/7/2 
f 32/62/2 45/79/2 46/80/2 33/63/2 
f 34/65/2 47/81/2 48/83/2 35/66/2 
f 38/71/2 49/84/2 50/85/2 39/72/2 
f 41/74/2 51/86/2 52/87/2 42/75/2 
f 53/89/2 54/90/2 55/91/2 56/92/2 
f 57/93/2 58/94/2 59/95/2 60/96/2 
f 61/89/2 62/90/2 63/91/2 64/92/2 
f 65/95/2 66/96/2 67/93/2 68/94/2 
f 69/91/2 70/92/2 71/89/2 72/90/2 
f 73/95/2 74/96/2 75/93/2 76/94/2 
f 77/97/7 78/98/5 79/99/5 
f 80/100/7 81/101/5 14/102/5 19/103/7 
f 19/103/7 82/104/7 83/105/7 
f 77/106/7 84/107/5 85/108/7 
f 86/109/8 87/110/9 4/111/9 3/112/8 
f 3/112/8 88/113/8 89/114/8 
f 90/115/8 91/116/8 92/117/8 
f 19/103/7 83/105/7 80/100/7 
f 85/108/7 82/104/7 19/103/7 77/106/7 
f 77/106/7 79/118/5 84/107/5 
f 3/112/8 89/114/8 86/109/8 
f 92/117/8 88/113/8 3/112/8 90/115/8 
f 90/115/8 93/119/8 91/116/8 
f 94/120/8 93/119/8 90/115/8 
f 95/121/8 96/122/8 14/102/5 
f 97/123/8 98/124/8 90/125/8 
f 99/126/7 100/127/9 4/111/9 
f 101/128/9 102/129/5 77/97/7 
f 81/101/5 95/121/8 14/102/5 
f 97/123/8 90/125/8 14/102/5 96/122/8 
f 98/124/8 94/130/8 90/125/8 
f 87/110/9 99/126/7 4/111/9 
f 101/128/9 77/97/7 4/111/9 100/127/9 
f 102/129/5 78/98/5 77/97/7 
f 79/99/5 78/98/5 93/119/8 94/120/8 
f 83/105/7 82/104/7 96/122/8 95/121/8 
f 85/108/7 84/107/5 98/124/8 97/123/8 
f 89/114/8 88/113/8 100/127/9 99/126/7 
f 92/117/8 91/116/8 102/129/5 101/128/9 
f 103/92/5 104/89/5 105/90/5 106/91/5 
f 107/96/5 108/93/5 109/94/5 110/95/5 
f 111/92/5 112/89/5 113/90/5 114/91/5 
f 115/94/5 116/95/5 117/96/5 118/93/5 
f 119/90/5 120/91/5 121/92/5 122/89/5 
f 123/94/5 124/95/5 125/96/5 126/93/5 
f 31/131/1 30/132/1 54/133/1 53/134/1 
f 30/132/6 45/135/6 55/136/6 54/133/6 
f 45/135/3 32/137/3 56/138/3 55/136/3 
f 32/137/4 31/139/4 53/140/4 56/138/4 
f 34/141/4 33/142/4 57/143/4 60/144/4 
f 33/145/1 46/146/1 58/147/1 57/148/1 
f 46/146/6 47/149/6 59/150/6 58/147/6 
f 47/149/3 34/141/3 60/144/3 59/150/3 
f 6/151/4 35/152/4 61/153/4 64/154/4 
f 35/155/1 48/156/1 62/157/1 61/158/1 
f 48/156/6 44/159/6 63/160/6 62/157/6 
f 44/159/3 6/151/3 64/154/3 63/160/3 
f 37/161/3 36/162/3 66/163/3 65/164/3 
f 36/162/4 49/165/4 67/166/4 66/163/4 
f 49/167/1 38/168/1 68/169/1 67/170/1 
f 38/168/6 37/161/6 65/164/6 68/169/6 
f 41/171/6 39/172/6 69/173/6 72/174/6 
f 39/172/3 50/175/3 70/176/3 69/173/3 
f 50/175/4 51/177/4 71/178/4 70/176/4 
f 51/179/1 41/171/1 72/174/1 71/180/1 
f 43/181/6 42/182/6 73/183/6 76/184/6 
f 42/182/3 52/185/3 74/186/3 73/183/3 
f 52/185/4 7/187/4 75/188/4 74/186/4 
f 7/189/1 43/181/1 76/184/1 75/190/1 
f 81/191/1 80/192/1 103/193/1 106/194/1 
f 80/192/4 83/195/4 104/196/4 103/193/4 
f 83/197/3 95/198/3 105/199/3 104/200/3 
f 95/198/6 81/191/6 106/194/6 105/199/6 
f 82/201/4 85/202/4 108/203/4 107/204/4 
f 85/205/3 97/206/3 109/207/3 108/208/3 
f 97/206/6 96/209/6 110/210/6 109/207/6 
f 96/209/1 82/201/1 107/204/1 110/210/1 
f 84/211/4 79/212/4 112/213/4 111/214/4 
f 79/215/3 94/216/3 113/217/3 112/218/3 
f 94/216/6 98/219/6 114/220/6 113/217/6 
f 98/219/1 84/211/1 111/214/1 114/220/1 
f 87/221/3 86/222/3 115/223/3 118/224/3 
f 86/222/6 89/225/6 116/226/6 115/223/6 
f 89/225/1 99/227/1 117/228/1 116/226/1 
f 99/227/4 87/229/4 118/230/4 117/228/4 
f 88/231/6 92/232/6 120/233/6 119/234/6 
f 92/232/1 101/235/1 121/236/1 120/233/1 
f 101/235/4 100/237/4 122/238/4 121/236/4 
f 100/239/3 88/231/3 119/234/3 122/240/3 
f 91/241/6 93/242/6 124/243/6 123/244/6 
f 93/242/1 78/245/1 125/246/1 124/243/1 
f 78/245/4 102/247/4 126/248/4 125/246/4 
f 102/249/3 91/241/3 123/244/3 126/250/3 
f 127/251/10 128/252/10 129/253/10 130/254/10 
f 131/255/11 127/251/11 130/254/11 132/256/11 
f 133/257/3 134/258/3 135/259/3 136/260/3 
f 128/261/12 137/262/12 138/263/12 129/264/12 
f 130/265/1 129/266/1 138/267/1 139/268/1 
f 131/269/13 140/270/13 141/271/13 142/272/13 
f 134/273/3 142/274/3 141/275/3 135/276/3 
f 132/277/1 130/278/1 139/279/1 143/280/1 
f 134/281/10 133/282/10 128/283/10 127/284/10 
f 142/285/11 134/281/11 127/284/11 131/286/11 
f 133/287/12 136/288/12 137/289/12 128/290/12 
f 132/291/13 143/292/13 140/293/13 131/294/13 
f 136/260/14 135/259/14 15/295/14 14/296/14 
f 135/276/15 141/275/15 10/297/15 15/298/15 
f 141/271/15 140/270/16 40/299/16 10/300/15 
f 140/293/16 143/292/16 12/301/16 40/302/16 
f 143/280/16 139/279/16 13/303/16 12/304/16 
f 139/268/17 138/267/14 3/305/14 13/306/17 
f 138/263/14 137/262/14 90/307/14 3/308/14 
f 137/289/14 136/288/14 14/309/14 90/310/14 
# 120 polygons - 38 triangles

#
# object 02_ML_031_LOD1
#

v  -752.6907 513.0331 1025.0000
v  -752.6907 513.0331 -106.4289
v  -1095.3257 291.0017 -106.4289
v  -1095.3257 291.0017 1025.0000
v  -442.6907 -95.0000 989.9999
v  -442.6907 305.0000 989.9999
v  -1062.6907 305.0000 989.9999
v  -1062.6907 -95.0000 989.9999
v  -442.6907 -95.0000 -106.4290
v  -442.6907 305.0000 -106.4289
v  -1062.6907 -94.9999 -990.0001
v  -1062.6907 305.0001 -990.0001
v  -442.6907 305.0001 -990.0001
v  -442.6907 -94.9999 -990.0001
v  -1062.6907 -95.0000 -106.4290
v  -1062.6907 305.0000 -106.4289
v  -410.0557 291.0017 1025.0000
v  -410.0557 291.0017 -106.4289
v  -752.6907 505.8835 989.9999
v  -752.6907 505.8836 -990.0001
v  -752.6907 513.0332 -1025.0000
v  -1095.3257 291.0018 -1025.0000
v  -410.0557 291.0018 -1025.0000
# 23 vertices

vn -0.5438 0.8392 0.0000
vn 0.0000 -0.0000 1.0000
vn 1.0000 0.0000 -0.0000
vn 0.0000 0.0000 -1.0000
vn -1.0000 0.0000 -0.0000
vn 0.5438 0.8392 0.0000
vn 0.5438 -0.8392 -0.0000
vn -0.5438 -0.8392 -0.0000
# 8 vertex normals

vt 0.9881 0.1735 0.0000
vt 0.4483 0.1735 0.0000
vt 0.4483 0.0100 0.0000
vt 0.9881 0.0100 0.0000
vt 0.5724 0.7274 0.0000
vt 0.5724 0.9022 0.0000
vt 0.3014 0.9022 0.0000
vt 0.3014 0.7274 0.0000
vt 0.4892 0.5391 0.0000
vt 0.4892 0.7139 0.0000
vt 0.0100 0.7139 0.0000
vt 0.0100 0.5391 0.0000
vt 0.2810 0.7274 0.0000
vt 0.2810 0.9022 0.0000
vt 0.0100 0.9022 0.0000
vt 0.0100 0.7274 0.0000
vt 0.3962 0.3507 0.0000
vt 0.3962 0.5256 0.0000
vt 0.0100 0.5256 0.0000
vt 0.0100 0.3507 0.0000
vt 0.9881 0.3370 0.0000
vt 0.4483 0.3370 0.0000
vt 0.4369 0.9900 0.0000
vt 0.1455 0.9900 0.0000
vt 0.0100 0.1735 0.0000
vt 0.0100 0.0100 0.0000
vt 0.8754 0.5391 0.0000
vt 0.8754 0.7139 0.0000
vt 0.8754 0.3507 0.0000
vt 0.8754 0.5256 0.0000
vt 0.0100 0.3370 0.0000
# 31 texture coords

g 02_ML_031_LOD1
usemtl 02_ML_031_LOD1
s off
f 144/311/18 145/312/18 146/313/18 147/314/18 
f 148/315/19 149/316/19 150/317/19 151/318/19 
f 152/319/20 153/320/20 149/321/20 148/322/20 
f 154/323/21 155/324/21 156/325/21 157/326/21 
f 158/327/22 159/328/22 155/329/22 154/330/22 
f 160/331/23 161/332/23 145/312/23 144/311/23 
f 149/316/19 162/333/19 150/317/19 
f 155/324/21 163/334/21 156/325/21 
f 164/335/18 165/336/18 146/313/18 145/312/18 
f 157/337/20 156/338/20 153/320/20 152/319/20 
f 151/339/22 150/340/22 159/328/22 158/327/22 
f 166/341/23 164/335/23 145/312/23 161/332/23 
f 144/311/24 147/314/24 146/313/24 145/312/24 
f 160/331/25 144/311/25 145/312/25 161/332/25 
f 164/335/24 145/312/24 146/313/24 165/336/24 
f 166/341/25 161/332/25 145/312/25 164/335/25 
# 14 polygons - 2 triangles

